<svg width="127" height="50" viewBox="0 0 127 50" fill="none" xmlns="http://www.w3.org/2000/svg">
<g filter="url(#filter0_d)">
<path d="M0 5C0 2.23858 2.23858 0 5 0H112C114.761 0 117 2.23858 117 5V35C117 37.7614 114.761 40 112 40H5C2.23858 40 0 37.7614 0 35V5Z" fill="black"/>
<path d="M19.7193 28.322C18.4159 28.322 17.1509 28.161 15.9243 27.839C14.6976 27.517 13.7009 27.0877 12.9343 26.551L14.4293 23.193C15.1499 23.6683 15.9856 24.0517 16.9363 24.343C17.8869 24.6343 18.8223 24.78 19.7423 24.78C21.4903 24.78 22.3643 24.343 22.3643 23.469C22.3643 23.009 22.1113 22.6717 21.6053 22.457C21.1146 22.227 20.3173 21.9893 19.2133 21.744C18.0019 21.4833 16.9899 21.2073 16.1773 20.916C15.3646 20.6093 14.6669 20.1263 14.0843 19.467C13.5016 18.8077 13.2103 17.9183 13.2103 16.799C13.2103 15.8177 13.4786 14.936 14.0153 14.154C14.5519 13.3567 15.3493 12.728 16.4073 12.268C17.4806 11.808 18.7916 11.578 20.3403 11.578C21.3983 11.578 22.4409 11.7007 23.4683 11.946C24.4956 12.176 25.4003 12.521 26.1823 12.981L24.7793 16.362C23.2459 15.534 21.7586 15.12 20.3173 15.12C19.4126 15.12 18.7533 15.258 18.3393 15.534C17.9253 15.7947 17.7183 16.1397 17.7183 16.569C17.7183 16.9983 17.9636 17.3203 18.4543 17.535C18.9449 17.7497 19.7346 17.972 20.8233 18.202C22.0499 18.4627 23.0619 18.7463 23.8593 19.053C24.6719 19.3443 25.3696 19.8197 25.9523 20.479C26.5503 21.123 26.8493 22.0047 26.8493 23.124C26.8493 24.09 26.5809 24.964 26.0443 25.746C25.5076 26.528 24.7026 27.1567 23.6293 27.632C22.5559 28.092 21.2526 28.322 19.7193 28.322ZM39.9699 24.872H33.1619L31.8969 28H27.2509L34.3579 11.9H38.8429L45.9729 28H41.2349L39.9699 24.872ZM38.6359 21.514L36.5659 16.362L34.4959 21.514H38.6359ZM51.3498 28.322C50.1692 28.322 49.0958 28.1227 48.1298 27.724C47.1638 27.31 46.3742 26.7197 45.7608 25.953L48.2448 23.009C49.1035 24.1283 50.0312 24.688 51.0278 24.688C51.6872 24.688 52.1855 24.4887 52.5228 24.09C52.8755 23.6913 53.0518 23.1087 53.0518 22.342V15.419H47.4858V11.9H57.5598V22.066C57.5598 24.1513 57.0308 25.7153 55.9728 26.758C54.9302 27.8007 53.3892 28.322 51.3498 28.322ZM68.9826 28.322C67.2806 28.322 65.7472 27.9617 64.3826 27.241C63.0332 26.5203 61.9676 25.5237 61.1856 24.251C60.4189 22.9783 60.0356 21.5447 60.0356 19.95C60.0356 18.3553 60.4189 16.9217 61.1856 15.649C61.9676 14.3763 63.0332 13.3797 64.3826 12.659C65.7472 11.9383 67.2806 11.578 68.9826 11.578C70.6846 11.578 72.2102 11.9383 73.5596 12.659C74.9242 13.3797 75.9899 14.3763 76.7566 15.649C77.5386 16.9217 77.9296 18.3553 77.9296 19.95C77.9296 21.5447 77.5386 22.9783 76.7566 24.251C75.9899 25.5237 74.9242 26.5203 73.5596 27.241C72.2102 27.9617 70.6846 28.322 68.9826 28.322ZM68.9826 24.55C69.7952 24.55 70.5312 24.3583 71.1906 23.975C71.8499 23.5917 72.3712 23.055 72.7546 22.365C73.1379 21.6597 73.3296 20.8547 73.3296 19.95C73.3296 19.0453 73.1379 18.248 72.7546 17.558C72.3712 16.8527 71.8499 16.3083 71.1906 15.925C70.5312 15.5417 69.7952 15.35 68.9826 15.35C68.1699 15.35 67.4339 15.5417 66.7746 15.925C66.1152 16.3083 65.5939 16.8527 65.2106 17.558C64.8272 18.248 64.6356 19.0453 64.6356 19.95C64.6356 20.8547 64.8272 21.6597 65.2106 22.365C65.5939 23.055 66.1152 23.5917 66.7746 23.975C67.4339 24.3583 68.1699 24.55 68.9826 24.55ZM80.9087 28.126C80.4607 28.126 80.0827 27.9767 79.7747 27.678C79.4667 27.3793 79.3127 27.0013 79.3127 26.544C79.3127 26.0773 79.4621 25.6993 79.7607 25.41C80.0687 25.1207 80.4514 24.976 80.9087 24.976C81.3754 24.976 81.7581 25.1207 82.0567 25.41C82.3554 25.6993 82.5047 26.0773 82.5047 26.544C82.5047 27.0013 82.3507 27.3793 82.0427 27.678C81.7441 27.9767 81.3661 28.126 80.9087 28.126ZM88.3036 25.396H86.7916V28H84.0196V18.2H88.4996C89.3863 18.2 90.1563 18.3493 90.8096 18.648C91.4629 18.9373 91.9669 19.3573 92.3216 19.908C92.6763 20.4493 92.8536 21.0887 92.8536 21.826C92.8536 22.5353 92.6856 23.156 92.3496 23.688C92.0229 24.2107 91.5516 24.6213 90.9356 24.92L93.0496 28H90.0816L88.3036 25.396ZM90.0536 21.826C90.0536 21.3687 89.9089 21.014 89.6196 20.762C89.3303 20.51 88.9009 20.384 88.3316 20.384H86.7916V23.254H88.3316C88.9009 23.254 89.3303 23.1327 89.6196 22.89C89.9089 22.638 90.0536 22.2833 90.0536 21.826ZM99.0449 28.196C97.5889 28.196 96.4549 27.7993 95.6429 27.006C94.8402 26.2127 94.4389 25.088 94.4389 23.632V18.2H97.2109V23.548C97.2109 25.116 97.8315 25.9 99.0729 25.9C100.305 25.9 100.921 25.116 100.921 23.548V18.2H103.651V23.632C103.651 25.088 103.245 26.2127 102.433 27.006C101.63 27.7993 100.501 28.196 99.0449 28.196Z" fill="white"/>
</g>
<defs>
<filter id="filter0_d" x="0" y="0" width="127" height="50" filterUnits="userSpaceOnUse" color-interpolation-filters="sRGB">
<feFlood flood-opacity="0" result="BackgroundImageFix"/>
<feColorMatrix in="SourceAlpha" type="matrix" values="0 0 0 0 0 0 0 0 0 0 0 0 0 0 0 0 0 0 127 0"/>
<feOffset dx="5" dy="5"/>
<feGaussianBlur stdDeviation="2.5"/>
<feColorMatrix type="matrix" values="0 0 0 0 0 0 0 0 0 0 0 0 0 0 0 0 0 0 0.18 0"/>
<feBlend mode="normal" in2="BackgroundImageFix" result="effect1_dropShadow"/>
<feBlend mode="normal" in="SourceGraphic" in2="effect1_dropShadow" result="shape"/>
</filter>
</defs>
</svg>
