<svg width="117" height="40" fill="none" xmlns="http://www.w3.org/2000/svg"><path d="M0 5a5 5 0 015-5h107a5 5 0 015 5v30a5 5 0 01-5 5H5a5 5 0 01-5-5V5z" fill="#000"/><path d="M19.72 28.322c-1.304 0-2.57-.161-3.796-.483-1.226-.322-2.223-.751-2.99-1.288l1.495-3.358c.72.475 1.557.859 2.507 1.15.95.291 1.886.437 2.806.437 1.748 0 2.622-.437 2.622-1.311 0-.46-.253-.797-.759-1.012-.49-.23-1.288-.468-2.392-.713-1.211-.26-2.223-.537-3.036-.828a5.211 5.211 0 01-2.093-1.449c-.582-.66-.874-1.549-.874-2.668 0-.981.269-1.863.805-2.645.537-.797 1.334-1.426 2.392-1.886 1.074-.46 2.385-.69 3.933-.69 1.058 0 2.1.123 3.128.368 1.028.23 1.932.575 2.714 1.035l-1.403 3.381c-1.533-.828-3.02-1.242-4.462-1.242-.904 0-1.564.138-1.978.414-.414.26-.62.606-.62 1.035 0 .43.245.751.735.966.49.215 1.28.437 2.37.667 1.226.26 2.238.544 3.035.851.813.291 1.51.767 2.093 1.426.598.644.897 1.526.897 2.645a4.53 4.53 0 01-.805 2.622c-.536.782-1.341 1.41-2.415 1.886-1.073.46-2.376.69-3.91.69zm20.25-3.45h-6.808L31.897 28H27.25l7.107-16.1h4.485l7.13 16.1h-4.738l-1.265-3.128zm-1.334-3.358l-2.07-5.152-2.07 5.152h4.14zm12.714 6.808c-1.18 0-2.254-.2-3.22-.598-.966-.414-1.756-1.004-2.37-1.771l2.485-2.944c.858 1.12 1.786 1.679 2.783 1.679.66 0 1.157-.2 1.495-.598.352-.399.529-.981.529-1.748v-6.923h-5.566V11.9H57.56v10.166c0 2.085-.53 3.65-1.587 4.692-1.043 1.043-2.584 1.564-4.623 1.564zm17.633 0c-1.702 0-3.236-.36-4.6-1.081a8.225 8.225 0 01-3.197-2.99c-.767-1.273-1.15-2.706-1.15-4.301 0-1.595.383-3.028 1.15-4.301a8.225 8.225 0 013.197-2.99c1.364-.72 2.898-1.081 4.6-1.081 1.702 0 3.227.36 4.577 1.081 1.364.72 2.43 1.717 3.197 2.99.782 1.273 1.173 2.706 1.173 4.301 0 1.595-.391 3.028-1.173 4.301-.767 1.273-1.833 2.27-3.197 2.99-1.35.72-2.875 1.081-4.577 1.081zm0-3.772c.812 0 1.548-.192 2.208-.575.659-.383 1.18-.92 1.564-1.61.383-.705.575-1.51.575-2.415s-.192-1.702-.575-2.392a4.117 4.117 0 00-1.564-1.633 4.313 4.313 0 00-2.208-.575c-.813 0-1.55.192-2.208.575-.66.383-1.181.928-1.564 1.633-.384.69-.575 1.487-.575 2.392 0 .905.191 1.71.575 2.415.383.69.904 1.227 1.564 1.61.659.383 1.395.575 2.208.575zm11.926 3.576c-.448 0-.826-.15-1.134-.448-.308-.299-.462-.677-.462-1.134 0-.467.15-.845.448-1.134.308-.29.69-.434 1.148-.434.466 0 .85.145 1.148.434.298.29.448.667.448 1.134 0 .457-.154.835-.462 1.134-.299.299-.677.448-1.134.448zm7.395-2.73h-1.512V28H84.02v-9.8h4.48c.886 0 1.656.15 2.31.448.653.29 1.157.71 1.512 1.26.354.541.532 1.18.532 1.918 0 .71-.168 1.33-.504 1.862-.327.523-.798.933-1.414 1.232L93.05 28h-2.968l-1.778-2.604zm1.75-3.57c0-.457-.145-.812-.434-1.064-.29-.252-.72-.378-1.288-.378h-1.54v2.87h1.54c.569 0 .998-.121 1.288-.364.289-.252.434-.607.434-1.064zm8.99 6.37c-1.455 0-2.59-.397-3.401-1.19-.803-.793-1.204-1.918-1.204-3.374V18.2h2.772v5.348c0 1.568.62 2.352 1.862 2.352 1.232 0 1.848-.784 1.848-2.352V18.2h2.73v5.432c0 1.456-.406 2.58-1.218 3.374-.803.793-1.932 1.19-3.388 1.19z" fill="#fff"/></svg>